<svg xmlns="http://www.w3.org/2000/svg" viewBox="0 0 31.49 32.92">
    <defs><style>.cls-1{fill:none;stroke:#e3d9da;stroke-miterlimit:10;stroke-width:2px;}</style></defs>
    <title>Legacy1</title>
    <g id="Layer_2" data-name="Layer 2">
        <g id="Layer_1-2" data-name="Layer 1">
            <path class="cls-1" d="M8.37,1s2.68,2.45,3.16,7.63a80.34,80.34,0,0,1,.23,16.89c-.37,3.7-1.8,6.39-2.5,6.39"/>
            <line class="cls-1" x1="15.98" y1="0.53" x2="15.98" y2="32.53"/>
            <path class="cls-1" d="M.1,1.5S5.86.93,8.19,10.83c2.49,10.54,13.05,10.33,15.48-.31C26,.38,31.38,1,31.38,1"/>
            <path class="cls-1" d="M23.36,1S20.69,3.46,20.2,8.64A80.29,80.29,0,0,0,20,25.53c.37,3.7,1.8,6.39,2.5,6.39"/>
        </g>
    </g>
</svg>